<?xml version="1.0" encoding="UTF-8" standalone="no" ?>
<!DOCTYPE svg PUBLIC "-//W3C//DTD SVG 1.1//EN" "http://www.w3.org/Graphics/SVG/1.1/DTD/svg11.dtd">
<svg xmlns="http://www.w3.org/2000/svg" xmlns:xlink="http://www.w3.org/1999/xlink" version="1.1" width="1080" height="1080" viewBox="0 0 1080 1080" xml:space="preserve">
<desc>Created with Fabric.js 5.2.4</desc>
<defs>
</defs>
<g transform="matrix(1 0 0 1 540 540)" id="196cc666-7869-407d-9b9e-1b38b3034094"  >
<rect style="stroke: none; stroke-width: 1; stroke-dasharray: none; stroke-linecap: butt; stroke-dashoffset: 0; stroke-linejoin: miter; stroke-miterlimit: 4; fill: rgb(255,255,255); fill-rule: nonzero; opacity: 1; visibility: hidden;" vector-effect="non-scaling-stroke"  x="-540" y="-540" rx="0" ry="0" width="1080" height="1080" />
</g>
<g transform="matrix(1 0 0 1 540 540)" id="2d9cbb3a-69e1-41ae-ab88-702ed2006e06"  >
</g>
<g transform="matrix(45 0 0 45 540 540)"  >
<g style="opacity: 1;"   >
		<g transform="matrix(1 0 0 1 0.01 -6)"  >
<path style="stroke: none; stroke-width: 1; stroke-dasharray: none; stroke-linecap: butt; stroke-dashoffset: 0; stroke-linejoin: miter; stroke-miterlimit: 4; fill: rgb(59,130,246); fill-rule: nonzero; opacity: 1;" vector-effect="non-scaling-stroke"  transform=" translate(-12.01, -6)" d="M 11.584 2.376 C 11.835913024360913 2.2080726464010745 12.164086975639087 2.2080726464010745 12.416 2.3759999999999994 L 21.416 8.376 C 21.64221484226418 8.523243171369757 21.771862420326563 8.780683722103642 21.755478238386488 9.050100248986807 C 21.73909405644641 9.319516775869971 21.579205507128595 9.559349599846698 21.336814936905704 9.678095201207984 C 21.09442436668281 9.796840802569271 20.80692248213523 9.776181711563183 20.584 9.623999999999999 L 12 3.901 L 3.416 9.624 C 3.0715440288773115 9.848206285837422 2.6108035507550262 9.75342098568416 2.382823541745406 9.41145097216973 C 2.1548435327357858 9.0694809586553 2.2445572857182694 8.607726171098859 2.584 8.376000000000001 L 11.584 2.3760000000000012 Z" stroke-linecap="round" />
</g>
		<g transform="matrix(1 0 0 1 0 3.37)"  >
<path style="stroke: none; stroke-width: 1; stroke-dasharray: none; stroke-linecap: butt; stroke-dashoffset: 0; stroke-linejoin: miter; stroke-miterlimit: 4; fill: rgb(59,130,246); fill-rule: evenodd; opacity: 1;" vector-effect="non-scaling-stroke"  transform=" translate(-12, -15.37)" d="M 20.25 10.332 L 20.25 20.25 L 21 20.25 C 21.414213562373096 20.25 21.75 20.585786437626904 21.75 21 C 21.75 21.414213562373096 21.414213562373096 21.75 21 21.75 L 3 21.75 C 2.585786437626905 21.75 2.25 21.414213562373096 2.25 21 C 2.25 20.585786437626904 2.585786437626905 20.25 3 20.25 L 3.75 20.25 L 3.75 10.332 C 3.750479841577603 9.962941582256185 4.019382211801465 9.649080771584801 4.384 9.592 C 6.903444855965146 9.197219916519213 9.44981310694303 8.999287930623876 11.999999999999995 9.000000000000002 C 14.59 9 17.134 9.202 19.616 9.592 C 19.980617788198536 9.649080771584801 20.249520158422396 9.962941582256185 20.25 10.332 Z M 12.75 12.75 C 12.75 12.335786437626904 12.414213562373096 12 12 12 C 11.585786437626904 12 11.25 12.335786437626904 11.25 12.75 L 11.25 19.5 C 11.25 19.914213562373096 11.585786437626904 20.25 12 20.25 C 12.414213562373096 20.25 12.75 19.914213562373096 12.75 19.5 L 12.75 12.75 Z M 15.75 12 C 16.164213562373096 12 16.5 12.335786437626904 16.5 12.75 L 16.5 19.5 C 16.5 19.914213562373096 16.164213562373096 20.25 15.75 20.25 C 15.335786437626904 20.25 15 19.914213562373096 15 19.5 L 15 12.75 C 15 12.335786437626904 15.335786437626904 12 15.75 12 Z M 9 12.75 C 9 12.335786437626904 8.664213562373096 12 8.25 12 C 7.835786437626905 12 7.5 12.335786437626904 7.5 12.75 L 7.5 19.5 C 7.5 19.914213562373096 7.835786437626905 20.25 8.25 20.25 C 8.664213562373096 20.25 9 19.914213562373096 9 19.5 L 9 12.75 Z" stroke-linecap="round" />
</g>
		<g transform="matrix(1 0 0 1 0 -5.25)"  >
<path style="stroke: none; stroke-width: 1; stroke-dasharray: none; stroke-linecap: butt; stroke-dashoffset: 0; stroke-linejoin: miter; stroke-miterlimit: 4; fill: rgb(59,130,246); fill-rule: nonzero; opacity: 1;" vector-effect="non-scaling-stroke"  transform=" translate(-12, -6.75)" d="M 12 7.875 C 12.621320343559642 7.875 13.125 7.371320343559643 13.125 6.75 C 13.125 6.128679656440357 12.621320343559642 5.625 12 5.625 C 11.378679656440358 5.625 10.875 6.128679656440357 10.875 6.75 C 10.875 7.371320343559643 11.378679656440358 7.875 12 7.875 Z" stroke-linecap="round" />
</g>
</g>
</g>
<g transform="matrix(NaN NaN NaN NaN 0 0)"  >
<g style=""   >
</g>
</g>
<g transform="matrix(NaN NaN NaN NaN 0 0)"  >
<g style=""   >
</g>
</g>
</svg>