<?xml version="1.0" encoding="UTF-8" standalone="no" ?>
<!DOCTYPE svg PUBLIC "-//W3C//DTD SVG 1.1//EN" "http://www.w3.org/Graphics/SVG/1.1/DTD/svg11.dtd">
<svg xmlns="http://www.w3.org/2000/svg" xmlns:xlink="http://www.w3.org/1999/xlink" version="1.1" width="1080" height="1080" viewBox="0 0 1080 1080" xml:space="preserve">
<desc>Created with Fabric.js 5.2.4</desc>
<defs>
</defs>
<rect x="0" y="0" width="100%" height="100%" fill="transparent"></rect>
<g transform="matrix(1 0 0 1 540 540)" id="40245a9f-4481-49c2-a878-a772143d7424"  >
</g>
<g transform="matrix(1 0 0 1 540 540)" id="2c1a49c0-dff2-47e9-a781-248b30809c76"  >
<rect style="stroke: none; stroke-width: 1; stroke-dasharray: none; stroke-linecap: butt; stroke-dashoffset: 0; stroke-linejoin: miter; stroke-miterlimit: 4; fill: rgb(255,255,255); fill-rule: nonzero; opacity: 1; visibility: hidden;" vector-effect="non-scaling-stroke"  x="-540" y="-540" rx="0" ry="0" width="1080" height="1080" />
</g>
<g transform="matrix(25.46 0 0 25.46 249.05 515.26)"  >
<path style="stroke: none; stroke-width: 1; stroke-dasharray: none; stroke-linecap: butt; stroke-dashoffset: 0; stroke-linejoin: miter; stroke-miterlimit: 4; fill: rgb(59,130,246); fill-rule: evenodd; opacity: 1;"  transform=" translate(-12, -12)" d="M 4.5 2.25 C 4.085786437626905 2.25 3.75 2.585786437626905 3.75 3 C 3.75 3.414213562373095 4.085786437626905 3.75 4.5 3.75 L 4.5 20.25 L 3.75 20.25 C 3.335786437626905 20.25 3 20.585786437626904 3 21 C 3 21.414213562373096 3.335786437626905 21.75 3.75 21.75 L 20.25 21.75 C 20.664213562373096 21.75 21 21.414213562373096 21 21 C 21 20.585786437626904 20.664213562373096 20.25 20.25 20.25 L 19.5 20.25 L 19.5 3.75 C 19.914213562373096 3.75 20.25 3.414213562373095 20.25 3 C 20.25 2.585786437626905 19.914213562373096 2.25 19.5 2.25 L 4.5 2.25 Z M 9 6 C 8.585786437626904 6 8.25 6.335786437626905 8.25 6.75 C 8.25 7.164213562373095 8.585786437626904 7.5 9 7.5 L 10.5 7.5 C 10.914213562373096 7.5 11.25 7.164213562373095 11.25 6.75 C 11.25 6.335786437626905 10.914213562373096 6 10.5 6 L 9 6 Z M 8.25 9.75 C 8.25 9.335786437626904 8.585786437626904 9 9 9 L 10.5 9 C 10.914213562373096 9 11.25 9.335786437626904 11.25 9.75 C 11.25 10.164213562373096 10.914213562373096 10.5 10.5 10.5 L 9 10.5 C 8.585786437626904 10.5 8.25 10.164213562373096 8.25 9.75 Z M 9 12 C 8.585786437626904 12 8.25 12.335786437626904 8.25 12.75 C 8.25 13.164213562373096 8.585786437626904 13.5 9 13.5 L 10.5 13.5 C 10.914213562373096 13.5 11.25 13.164213562373096 11.25 12.75 C 11.25 12.335786437626904 10.914213562373096 12 10.5 12 L 9 12 Z M 12.75 6.75 C 12.75 6.335786437626905 13.085786437626904 6 13.5 6 L 15 6 C 15.414213562373096 6 15.75 6.335786437626905 15.75 6.75 C 15.75 7.164213562373095 15.414213562373096 7.5 15 7.5 L 13.5 7.5 C 13.085786437626904 7.5 12.75 7.164213562373095 12.75 6.75 Z M 13.5 9 C 13.085786437626904 9 12.75 9.335786437626904 12.75 9.75 C 12.75 10.164213562373096 13.085786437626904 10.5 13.5 10.5 L 15 10.5 C 15.414213562373096 10.5 15.75 10.164213562373096 15.75 9.75 C 15.75 9.335786437626904 15.414213562373096 9 15 9 L 13.5 9 Z M 12.75 12.75 C 12.75 12.335786437626904 13.085786437626904 12 13.5 12 L 15 12 C 15.414213562373096 12 15.75 12.335786437626904 15.75 12.75 C 15.75 13.164213562373096 15.414213562373096 13.5 15 13.5 L 13.5 13.5 C 13.085786437626904 13.5 12.75 13.164213562373096 12.75 12.75 Z M 9 19.5 L 9 17.25 C 9 16.835786437626904 9.335786437626904 16.5 9.75 16.5 L 14.25 16.5 C 14.664213562373096 16.5 15 16.835786437626904 15 17.25 L 15 19.5 C 15 19.914213562373096 14.664213562373096 20.25 14.25 20.25 L 9.75 20.25 C 9.335786437626904 20.25 9 19.914213562373096 9 19.5 Z" stroke-linecap="round" />
</g>
<g transform="matrix(NaN NaN NaN NaN 0 0)"  >
<g style=""   >
</g>
</g>
<g transform="matrix(NaN NaN NaN NaN 0 0)"  >
<g style=""   >
</g>
</g>
<g transform="matrix(1 0 0 1 1051.17 457.35)" style="" id="60131a3e-4b99-4e39-be4d-a25673636dc4"  >
		<text xml:space="preserve" font-family="Raleway" font-size="81" font-style="normal" font-weight="900" style="stroke: none; stroke-width: 1; stroke-dasharray: none; stroke-linecap: butt; stroke-dashoffset: 0; stroke-linejoin: miter; stroke-miterlimit: 4; fill: rgb(59,130,246); fill-rule: nonzero; opacity: 1; white-space: pre;" ><tspan x="-559.49" y="-20.32" >Reservasi</tspan><tspan x="-559.49" y="71.21" >Gedung</tspan></text>
</g>
<g transform="matrix(NaN NaN NaN NaN 0 0)"  >
<g style=""   >
</g>
</g>
<g transform="matrix(NaN NaN NaN NaN 0 0)"  >
<g style=""   >
</g>
</g>
<g transform="matrix(1 0 0 1 933.38 605.61)" style="" id="0b82a3ac-e772-4786-9c13-1c561c05f3fd"  >
		<text xml:space="preserve" font-family="Alegreya" font-size="68" font-style="normal" font-weight="700" style="stroke: none; stroke-width: 1; stroke-dasharray: none; stroke-linecap: butt; stroke-dashoffset: 0; stroke-linejoin: miter; stroke-miterlimit: 4; fill: rgb(59,130,246); fill-rule: nonzero; opacity: 1; white-space: pre;" ><tspan x="-432" y="21.36" >PAMS</tspan></text>
</g>
<g transform="matrix(NaN NaN NaN NaN 0 0)"  >
<g style=""   >
</g>
</g>
<g transform="matrix(NaN NaN NaN NaN 0 0)"  >
<g style=""   >
</g>
</g>
<g transform="matrix(NaN NaN NaN NaN 0 0)"  >
<g style=""   >
</g>
</g>
<g transform="matrix(NaN NaN NaN NaN 0 0)"  >
<g style=""   >
</g>
</g>
<g transform="matrix(NaN NaN NaN NaN 0 0)"  >
<g style=""   >
</g>
</g>
<g transform="matrix(NaN NaN NaN NaN 0 0)"  >
<g style=""   >
</g>
</g>
<g transform="matrix(NaN NaN NaN NaN 0 0)"  >
<g style=""   >
</g>
</g>
<g transform="matrix(NaN NaN NaN NaN 0 0)"  >
<g style=""   >
</g>
</g>
</svg>